<svg version="1.1" xmlns="http://www.w3.org/2000/svg" display="none">
	<symbol id="play-circle" viewBox="0 0 100 100">
		<path id="XMLID_29_" d="M11.5,22.4h2.7V80h-2.7V22.4z M15.6,22.4h1.4V80h-1.4V22.4z M19.6,22.4H21V80h-1.4V22.4z M26.4,22.4h1.4V80
			h-1.4V22.4z M31.8,22.4h2.7V80h-2.7V22.4z M38.5,22.4h1.4V80h-1.4V22.4z M41.2,22.4h1.4V80h-1.4V22.4z M43.9,22.4h1.4V80h-1.4V22.4
			z M49.2,22.4h2.7V80h-2.7V22.4z M55.9,22.4h2.7V80h-2.7V22.4z M61.3,22.4H64V80h-2.7V22.4z M66.7,22.4h2.7V80h-2.7V22.4z
			 M70.8,22.4h2.7V80h-2.7V22.4z M77.6,22.4h4.1V80h-4.1V22.4z M83,22.4h1.4V80H83V22.4z M85.7,22.4h2.7V80h-2.7V22.4z"/>
	</symbol>
</svg>
