<?xml version="1.0" encoding="utf-8"?>
<!-- Generator: Adobe Illustrator 19.0.0, SVG Export Plug-In . SVG Version: 6.00 Build 0)  -->
<svg version="1.1" id="Layer_1" xmlns="http://www.w3.org/2000/svg" xmlns:xlink="http://www.w3.org/1999/xlink" x="0px" y="0px"
	 viewBox="0 0 100 100" style="enable-background:new 0 0 100 100;" xml:space="preserve">
<g id="XMLID_80_">
	<path id="XMLID_82_" d="M89.7,46.6c0,0.2-0.1,0.4-0.3,0.6s-0.4,0.3-0.7,0.3h-3v1.3c0,0.4-0.1,0.7-0.4,0.9c-0.3,0.3-0.7,0.4-1.1,0.4
		H34.6c-0.4,0-0.8-0.1-1.1-0.4c-0.3-0.3-0.4-0.6-0.4-0.9v-1.3h-3c-0.3,0-0.5-0.1-0.7-0.3C29.1,47,29,46.8,29,46.6v-1.7
		c0-0.4,0.2-0.6,0.6-0.8L59,34.6c0.3-0.1,0.5-0.1,0.8,0l29.3,9.5c0.4,0.1,0.6,0.4,0.6,0.8V46.6z M32,77.7c-0.8,0-1.6,0.3-2.1,0.8
		C29.3,79,29,79.6,29,80.3V82c0,0.2,0.1,0.4,0.3,0.6c0.2,0.2,0.4,0.3,0.7,0.3h58.7c0.3,0,0.5-0.1,0.7-0.3c0.2-0.2,0.3-0.4,0.3-0.6
		v-1.7c0-0.7-0.3-1.3-0.9-1.8c-0.6-0.5-1.3-0.8-2.1-0.8H32z M37.1,72.5h-2.5c-0.4,0-0.8,0.1-1.1,0.4c-0.3,0.3-0.4,0.6-0.4,0.9V76
		h52.6v-2.2c0-0.4-0.1-0.7-0.4-0.9c-0.3-0.3-0.7-0.4-1.1-0.4h-2.5V51.8h-8.1v20.8h-4V51.8h-8.1v20.8h-4V51.8h-8.1v20.8h-4V51.8h-8.1
		V72.5z"/>
</g>
<g id="XMLID_1_">
</g>
<g id="XMLID_81_">
</g>
<g id="XMLID_86_">
</g>
<g id="XMLID_87_">
</g>
<g id="XMLID_88_">
</g>
<g id="XMLID_89_">
</g>
<g id="XMLID_90_">
</g>
</svg>
