<svg version="1.1"
	xmlns="http://www.w3.org/2000/svg"
	viewBox="0 0 100 100">
	<path id="XMLID_29_" d="M70.2,34.1l3.9,4.1c0.7,0.7,1.1,1.6,1.1,2.6s-0.4,1.9-1.1,2.6l-2.6,2.6c1.8,4.1,2.7,8.4,2.7,12.9
		c0,5.6-1.4,10.8-4.2,15.6c-2.8,4.8-6.6,8.6-11.3,11.4S48.7,90,43,90c-5.7,0-10.9-1.4-15.7-4.2C22.6,83,18.8,79.2,16,74.4
		c-2.8-4.8-4.2-10-4.2-15.7S13.2,47.8,16,43c2.8-4.8,6.6-8.5,11.3-11.3c4.8-2.8,10-4.2,15.7-4.2c4.5,0,8.8,0.9,12.9,2.7l2.6-2.6
		c0.7-0.7,1.6-1.1,2.6-1.1s1.9,0.4,2.6,1.1l3.9,3.9l7.8-7.8l2.7,2.6L70.2,34.1z M31.4,47.2c1.9-1.9,4.2-2.9,6.8-2.9
		c0.7,0,1.3-0.2,1.7-0.7c0.5-0.5,0.7-1,0.7-1.7s-0.2-1.3-0.7-1.7c-0.5-0.5-1-0.7-1.7-0.7c-4,0-7.4,1.4-10.2,4.2
		c-2.8,2.8-4.2,6.2-4.2,10.2c0,0.7,0.2,1.3,0.7,1.7c0.5,0.5,1,0.7,1.7,0.7s1.3-0.2,1.7-0.7c0.5-0.5,0.7-1,0.7-1.7
		C28.6,51.3,29.5,49.1,31.4,47.2z M74.1,21.9c0.5,0,0.9-0.2,1.3-0.6s0.5-0.8,0.5-1.3c0-0.5-0.2-0.9-0.6-1.3l-2.6-2.6
		c-0.3-0.4-0.7-0.6-1.2-0.6s-0.9,0.2-1.3,0.6c-0.4,0.4-0.5,0.8-0.5,1.3c0,0.5,0.2,0.9,0.5,1.3l2.6,2.6
		C73.2,21.7,73.6,21.9,74.1,21.9z M76.6,13.6c-0.4,0.4-0.5,0.8-0.5,1.3v3.6c0,0.5,0.2,0.9,0.5,1.3s0.8,0.5,1.3,0.5s0.9-0.2,1.3-0.5
		s0.5-0.8,0.5-1.3v-3.6c0-0.5-0.2-0.9-0.5-1.3S78.4,13,77.9,13S77,13.2,76.6,13.6z M85.5,18.8c0.3-0.4,0.5-0.8,0.5-1.3
		c0-0.5-0.2-0.9-0.5-1.3c-0.4-0.4-0.8-0.6-1.3-0.6s-0.9,0.2-1.2,0.6l-2.6,2.6c-0.4,0.4-0.6,0.8-0.6,1.3c0,0.5,0.2,0.9,0.6,1.3
		s0.8,0.6,1.3,0.6s0.9-0.2,1.3-0.6L85.5,18.8z M81.6,25.8c-0.5,0-0.9,0.2-1.3,0.6c-0.4,0.4-0.5,0.8-0.5,1.3c0,0.5,0.2,0.9,0.6,1.3
		l2.6,2.6c0.3,0.4,0.7,0.6,1.2,0.6s0.9-0.2,1.3-0.6s0.5-0.8,0.5-1.3s-0.2-0.9-0.5-1.3L83,26.4C82.6,26,82.1,25.8,81.6,25.8z
		 M83.3,22.1c-0.5,0-0.9,0.2-1.3,0.5s-0.5,0.8-0.5,1.3s0.2,0.9,0.5,1.3c0.4,0.4,0.8,0.5,1.3,0.5h3.6c0.5,0,0.9-0.2,1.3-0.5
		c0.4-0.4,0.5-0.8,0.5-1.3s-0.2-0.9-0.5-1.3s-0.8-0.5-1.3-0.5H83.3z"/>
</svg>
