<svg version="1.1"
	xmlns="http://www.w3.org/2000/svg"
	viewBox="0 0 100 100">
	<path id="XMLID_29_" d="M88.6,51.1h-77v-12c0-2,0.7-3.7,2.1-5.1c1.4-1.4,3.1-2.1,5.1-2.1h12v-7.2c0-2,0.7-3.7,2.1-5.1
		c1.4-1.4,3.1-2.1,5.1-2.1h24.1c2,0,3.7,0.7,5.1,2.1c1.4,1.4,2.1,3.1,2.1,5.1v7.2h12c2,0,3.7,0.7,5.1,2.1c1.4,1.4,2.1,3.1,2.1,5.1
		V51.1z M88.6,55.9v21.7c0,2-0.7,3.7-2.1,5.1c-1.4,1.4-3.1,2.1-5.1,2.1H18.8c-2,0-3.7-0.7-5.1-2.1c-1.4-1.4-2.1-3.1-2.1-5.1V55.9
		h28.9v3c0,0.5,0.2,0.9,0.5,1.3c0.4,0.4,0.8,0.5,1.3,0.5h15.6c0.5,0,0.9-0.2,1.3-0.5c0.4-0.4,0.5-0.8,0.5-1.3v-3H88.6z M40.4,27v4.8
		h19.3V27H40.4z"/>
		<symbol/>
</svg>
