<svg version="1.1"
	xmlns="http://www.w3.org/2000/svg"
	viewBox="0 0 100 100">
	<path id="XMLID_55_" d="M85,60.5c0.4,0.2,0.7,0.5,0.8,0.9s0.2,0.8,0.1,1.2c-1.7,5.3-4.5,10-8.3,14.1c-0.3,0.3-0.7,0.5-1.1,0.6
		c-0.4,0.1-0.8,0.1-1.2-0.2l-6.3-3.8c-2.7,2.3-5.8,4.1-9.2,5.3V86c0,0.4-0.1,0.8-0.4,1.1c-0.3,0.4-0.6,0.6-1,0.7
		C53,89,47.5,89,42,87.8c-0.4-0.1-0.7-0.3-1-0.7c-0.3-0.4-0.4-0.7-0.4-1.1v-7.4c-3.4-1.2-6.5-3-9.2-5.3l-6.3,3.8
		c-0.4,0.2-0.8,0.3-1.2,0.2c-0.4-0.1-0.8-0.3-1.1-0.6c-3.8-4.1-6.6-8.8-8.3-14.1c-0.1-0.4-0.1-0.8,0.1-1.2s0.4-0.7,0.8-0.9l6.3-3.8
		c-0.6-3.5-0.6-7,0-10.5l-6.3-3.8c-0.4-0.2-0.7-0.5-0.8-0.9c-0.2-0.4-0.2-0.8-0.1-1.2c1.7-5.3,4.5-10,8.3-14.1
		c0.3-0.3,0.7-0.5,1.1-0.6c0.4-0.1,0.8,0,1.2,0.2l6.3,3.8c2.7-2.3,5.8-4.1,9.2-5.3v-7.4c0-0.4,0.1-0.8,0.4-1.1
		c0.3-0.4,0.6-0.6,1-0.7c5.5-1.2,11-1.2,16.5,0c0.4,0.1,0.7,0.3,1,0.7s0.4,0.7,0.4,1.1v7.4c3.4,1.2,6.5,3,9.2,5.3l6.3-3.8
		c0.4-0.2,0.8-0.3,1.2-0.2c0.4,0.1,0.8,0.3,1.1,0.6c3.8,4.1,6.6,8.8,8.3,14.1c0.1,0.4,0.1,0.8-0.1,1.2c-0.2,0.4-0.4,0.7-0.8,0.9
		l-6.3,3.8c0.6,3.5,0.6,7,0,10.5L85,60.5z M58.8,42.9c-2.4-2.4-5.2-3.5-8.5-3.5c-3.3,0-6.1,1.2-8.5,3.5c-2.4,2.4-3.5,5.2-3.5,8.5
		c0,3.3,1.2,6.1,3.5,8.5c2.4,2.4,5.2,3.5,8.5,3.5c3.3,0,6.1-1.2,8.5-3.5s3.5-5.2,3.5-8.5C62.3,48.1,61.1,45.3,58.8,42.9z"/>
</svg>
