<svg version="1.1"
	xmlns="http://www.w3.org/2000/svg"
	viewBox="0 0 100 100">
	<path id="XMLID_55_" d="M23,85.2c-2,0-3.7-0.7-5.1-2.1c-1.4-1.4-2.1-3.1-2.1-5.1V24.8c0-2,0.7-3.7,2.1-5.1s3.1-2.1,5.1-2.1h53.1
		c2,0,3.7,0.7,5.1,2.1c1.4,1.4,2.1,3.1,2.1,5.1v53.1c0,2-0.7,3.7-2.1,5.1c-1.4,1.4-3.1,2.1-5.1,2.1H23z M31.1,60.1l-0.9,8.6
		c-0.1,0.5,0.1,1,0.5,1.4s0.9,0.6,1.4,0.5l8.8-0.9l20.4-20.5c0.2-0.2,0.3-0.4,0.3-0.7s-0.1-0.5-0.3-0.7L53,39.6
		c-0.2-0.2-0.4-0.3-0.7-0.3c-0.3,0-0.5,0.1-0.7,0.3L31.1,60.1z M63.3,33.1c-0.7-0.7-1.6-1.1-2.6-1.1s-1.9,0.4-2.6,1.1l-3.5,3.5
		c-0.2,0.2-0.3,0.4-0.3,0.7s0.1,0.5,0.3,0.7l8.3,8.3c0.2,0.2,0.4,0.3,0.7,0.3c0.3,0,0.5-0.1,0.7-0.3l3.5-3.5
		c0.7-0.7,1.1-1.6,1.1-2.6s-0.4-1.9-1.1-2.6L63.3,33.1z"/>
</svg>
