<?xml version="1.0" encoding="utf-8"?>
<!-- Generator: Adobe Illustrator 19.0.0, SVG Export Plug-In . SVG Version: 6.00 Build 0)  -->
<svg version="1.1" id="Layer_1" xmlns="http://www.w3.org/2000/svg" xmlns:xlink="http://www.w3.org/1999/xlink" x="0px" y="0px"
	 viewBox="0 0 100 100" style="enable-background:new 0 0 100 100;" xml:space="preserve">
<g id="XMLID_80_">
	<path id="XMLID_82_" d="M85.3,34.6c0,0.3-0.1,0.6-0.4,0.8c-0.3,0.3-0.5,0.4-0.9,0.4h-3.7v1.8c0,0.5-0.2,0.9-0.5,1.3
		s-0.8,0.5-1.3,0.5H17.7c-0.5,0-1-0.2-1.3-0.5c-0.4-0.4-0.5-0.8-0.5-1.3v-1.8h-3.7c-0.3,0-0.6-0.1-0.9-0.4c-0.3-0.3-0.4-0.5-0.4-0.8
		v-2.4c0-0.5,0.3-0.9,0.8-1.1l35.9-13.3c0.3-0.2,0.6-0.2,0.9,0l35.9,13.3c0.5,0.2,0.8,0.6,0.8,1.1V34.6z M14.6,78.1
		c-1,0-1.9,0.4-2.6,1.1s-1.1,1.6-1.1,2.6v2.4c0,0.3,0.1,0.6,0.4,0.8s0.5,0.4,0.9,0.4h71.9c0.3,0,0.6-0.1,0.9-0.4
		c0.3-0.3,0.4-0.5,0.4-0.8v-2.4c0-1-0.4-1.9-1.1-2.6c-0.7-0.7-1.6-1.1-2.6-1.1H14.6z M20.8,70.8h-3.1c-0.5,0-1,0.2-1.3,0.5
		c-0.4,0.4-0.5,0.8-0.5,1.3v3h64.5v-3c0-0.5-0.2-0.9-0.5-1.3s-0.8-0.5-1.3-0.5h-3.1v-29h-9.9v29h-5v-29h-9.9v29h-5v-29h-9.9v29h-5
		v-29h-9.9V70.8z"/>
</g>
<g id="XMLID_1_">
</g>
<g id="XMLID_81_">
</g>
<g id="XMLID_86_">
</g>
<g id="XMLID_87_">
</g>
<g id="XMLID_88_">
</g>
<g id="XMLID_89_">
</g>
<g id="XMLID_90_">
</g>
</svg>
