<?xml version="1.0" encoding="utf-8"?>
<!-- Generator: Adobe Illustrator 19.0.0, SVG Export Plug-In . SVG Version: 6.00 Build 0)  -->
<svg version="1.1" id="Layer_1" xmlns="http://www.w3.org/2000/svg" xmlns:xlink="http://www.w3.org/1999/xlink" x="0px" y="0px"
	 width="100px" height="100px" viewBox="0 0 100 100" style="enable-background:new 0 0 100 100;" xml:space="preserve">
<g id="XMLID_28_">
	<path id="XMLID_29_" d="M89.5,56.8c0,1.2-0.4,2.2-1.2,3s-1.8,1.2-3,1.2H60.8v24.5c0,1.2-0.4,2.2-1.2,3c-0.8,0.8-1.8,1.2-3,1.2H43.2
		c-1.2,0-2.2-0.4-3-1.2c-0.8-0.8-1.2-1.8-1.2-3V61.1H14.5c-1.2,0-2.2-0.4-3-1.2s-1.2-1.8-1.2-3V43.4c0-1.2,0.4-2.2,1.2-3
		c0.8-0.8,1.8-1.2,3-1.2h24.4V14.6c0-1.2,0.4-2.2,1.2-3c0.8-0.8,1.8-1.2,3-1.2h13.4c1.2,0,2.2,0.4,3,1.2c0.8,0.8,1.2,1.8,1.2,3v24.5
		h24.4c1.2,0,2.2,0.4,3,1.2c0.8,0.8,1.2,1.8,1.2,3V56.8z"/>
</g>
<g id="XMLID_27_">
</g>
<g id="XMLID_31_">
</g>
<g id="XMLID_32_">
</g>
<g id="XMLID_33_">
</g>
<g id="XMLID_34_">
</g>
<g id="XMLID_35_">
</g>
</svg>
