<?xml version="1.0" encoding="utf-8"?>
<!-- Generator: Adobe Illustrator 19.0.0, SVG Export Plug-In . SVG Version: 6.00 Build 0)  -->
<svg version="1.1" id="Layer_1" xmlns="http://www.w3.org/2000/svg" xmlns:xlink="http://www.w3.org/1999/xlink" x="0px" y="0px"
	 width="100px" height="100px" viewBox="0 0 100 100" style="enable-background:new 0 0 100 100;" xml:space="preserve">
<g id="XMLID_28_">
	<path id="XMLID_29_" d="M10.3,21.7c0-1,0.4-1.8,1.2-2.5s1.8-1,3-1h19.8l1.6-2.8c0.4-0.6,0.9-1.1,1.6-1.4s1.5-0.5,2.3-0.5H60
		c0.8,0,1.6,0.2,2.3,0.5c0.7,0.3,1.2,0.8,1.6,1.4l1.6,2.8h19.8c1.2,0,2.2,0.3,3,1s1.2,1.5,1.2,2.5v4.2c0,0.5-0.2,0.9-0.6,1.3
		s-0.9,0.5-1.5,0.5h-75c-0.6,0-1.1-0.2-1.5-0.5s-0.6-0.8-0.6-1.3V21.7z M83.8,82.5c0,2-0.8,3.7-2.5,5.1c-1.7,1.4-3.7,2.1-6,2.1H24.4
		c-2.4,0-4.4-0.7-6-2.1s-2.5-3.1-2.5-5.1V34.2c0-0.5,0.2-0.9,0.6-1.3s0.9-0.5,1.5-0.5h63.7c0.6,0,1.1,0.2,1.5,0.5
		c0.4,0.3,0.6,0.8,0.6,1.3V82.5z M34.9,42.6c-0.5-0.4-1.2-0.7-2-0.7s-1.5,0.2-2,0.7c-0.5,0.4-0.8,1-0.8,1.7v33.4
		c0,0.7,0.3,1.3,0.8,1.7c0.5,0.4,1.2,0.7,2,0.7s1.5-0.2,2-0.7c0.5-0.4,0.8-1,0.8-1.7V44.3C35.7,43.6,35.5,43,34.9,42.6z M51.9,42.6
		c-0.5-0.4-1.2-0.7-2-0.7s-1.5,0.2-2,0.7c-0.5,0.4-0.8,1-0.8,1.7v33.4c0,0.7,0.3,1.3,0.8,1.7c0.5,0.4,1.2,0.7,2,0.7s1.5-0.2,2-0.7
		c0.5-0.4,0.8-1,0.8-1.7V44.3C52.7,43.6,52.4,43,51.9,42.6z M68.9,42.6c-0.5-0.4-1.2-0.7-2-0.7s-1.5,0.2-2,0.7
		c-0.5,0.4-0.8,1-0.8,1.7v33.4c0,0.7,0.3,1.3,0.8,1.7c0.5,0.4,1.2,0.7,2,0.7s1.5-0.2,2-0.7c0.5-0.4,0.8-1,0.8-1.7V44.3
		C69.7,43.6,69.4,43,68.9,42.6z"/>
</g>
<g id="XMLID_27_">
</g>
<g id="XMLID_35_">
</g>
<g id="XMLID_36_">
</g>
<g id="XMLID_37_">
</g>
<g id="XMLID_38_">
</g>
<g id="XMLID_39_">
</g>
</svg>
