<svg version="1.1"
	xmlns="http://www.w3.org/2000/svg"
	viewBox="0 0 100 100">
	<path id="XMLID_29_" d="M89.4,50.9c0.3,0.3,0.4,0.7,0.5,1.1c0,0.5-0.1,0.9-0.3,1.3l-3.5,4.3c-0.3,0.4-0.6,0.6-1.1,0.6
		c-0.5,0-0.9-0.1-1.2-0.4l-32.5-27c-0.4-0.3-0.7-0.4-1.1-0.4s-0.7,0.1-1.1,0.4l-32.5,27c-0.4,0.3-0.8,0.4-1.2,0.4
		c-0.5,0-0.8-0.2-1.1-0.6l-3.5-4.3c-0.3-0.4-0.4-0.8-0.3-1.3c0-0.5,0.2-0.8,0.5-1.1L46,21.7c1.2-1,2.6-1.5,4.1-1.5
		c1.6,0,3,0.5,4.3,1.5L66.7,32V21.8c0-0.5,0.2-0.9,0.5-1.2c0.3-0.3,0.7-0.5,1.2-0.5h7.7c0.5,0,0.9,0.2,1.2,0.5
		c0.3,0.3,0.5,0.7,0.5,1.2v19.4L89.4,50.9z M77.8,59.4c0-0.6-0.2-1-0.6-1.4l-26-21.5c-0.4-0.3-0.7-0.4-1.1-0.4s-0.7,0.1-1.1,0.4
		L23,58c-0.4,0.4-0.6,0.8-0.6,1.4v20c0,0.9,0.3,1.7,1,2.4s1.4,1,2.4,1h16c0.5,0,0.9-0.2,1.2-0.5c0.3-0.3,0.5-0.7,0.5-1.2V65.4
		c0-0.5,0.2-0.9,0.5-1.2c0.3-0.3,0.7-0.5,1.2-0.5h10c0.5,0,0.9,0.2,1.2,0.5c0.3,0.3,0.5,0.7,0.5,1.2V81c0,0.5,0.2,0.9,0.5,1.2
		c0.3,0.3,0.7,0.5,1.2,0.5h16c0.9,0,1.7-0.3,2.4-1s1-1.4,1-2.4V59.4z"/>
</svg>
