<?xml version="1.0" encoding="utf-8"?>
<!-- Generator: Adobe Illustrator 19.0.0, SVG Export Plug-In . SVG Version: 6.00 Build 0)  -->
<svg version="1.1" id="Layer_1" xmlns="http://www.w3.org/2000/svg" xmlns:xlink="http://www.w3.org/1999/xlink" x="0px" y="0px"
	 width="100px" height="100px" viewBox="0 0 100 100" style="enable-background:new 0 0 100 100;" xml:space="preserve">
<g id="XMLID_28_">
	<path id="XMLID_55_" d="M18.5,17.5h62.7c2,0,3.7,0.7,5.1,2.1c1.4,1.4,2.1,3.1,2.1,5.1v53.1c0,2-0.7,3.7-2.1,5.1
		c-1.4,1.4-3.1,2.1-5.1,2.1H18.5c-2,0-3.7-0.7-5.1-2.1s-2.1-3.1-2.1-5.1V24.7c0-2,0.7-3.7,2.1-5.1S16.5,17.5,18.5,17.5z M82.7,36.8
		c0.2,0,0.4-0.1,0.6-0.3c0.2-0.2,0.3-0.4,0.3-0.6V24.7c0-0.7-0.2-1.3-0.7-1.7s-1-0.7-1.7-0.7H43.1c-0.3,0-0.6,0.2-0.8,0.5l-4.5,6.8
		H17c-0.2,0-0.4,0.1-0.6,0.3c-0.2,0.2-0.3,0.4-0.3,0.6v5.4c0,0.2,0.1,0.4,0.3,0.6c0.2,0.2,0.4,0.3,0.6,0.3H82.7z M18.5,22.3
		c-0.7,0-1.3,0.2-1.7,0.7s-0.7,1-0.7,1.7v1.5c0,0.2,0.1,0.4,0.3,0.6c0.2,0.2,0.4,0.3,0.6,0.3h17.5c0.2,0,0.4-0.1,0.6-0.3
		c0.2-0.2,0.3-0.4,0.3-0.6v-3c0-0.2-0.1-0.4-0.3-0.6c-0.2-0.2-0.4-0.3-0.6-0.3H18.5z M49.9,76.6c3.3,0,6.4-0.8,9.1-2.4
		s4.9-3.8,6.6-6.6c1.6-2.8,2.4-5.8,2.4-9.1c0-3.3-0.8-6.4-2.4-9.1c-1.6-2.8-3.8-4.9-6.6-6.6c-2.8-1.6-5.8-2.4-9.1-2.4
		c-3.3,0-6.4,0.8-9.1,2.4c-2.8,1.6-4.9,3.8-6.6,6.6c-1.6,2.8-2.4,5.8-2.4,9.1c0,3.3,0.8,6.4,2.4,9.1c1.6,2.8,3.8,4.9,6.6,6.6
		C43.5,75.8,46.5,76.6,49.9,76.6z M49.9,45.2c3.6,0,6.7,1.3,9.3,3.9s3.9,5.7,3.9,9.3s-1.3,6.7-3.9,9.3s-5.7,3.9-9.3,3.9
		c-3.6,0-6.7-1.3-9.3-3.9s-3.9-5.7-3.9-9.3s1.3-6.7,3.9-9.3S46.2,45.2,49.9,45.2z M42.6,60.9c0.7,0,1.3-0.2,1.7-0.7
		c0.5-0.5,0.7-1,0.7-1.7c0-1.3,0.5-2.4,1.4-3.4s2.1-1.4,3.4-1.4c0.7,0,1.3-0.2,1.7-0.7c0.5-0.5,0.7-1,0.7-1.7S52,50,51.6,49.5
		c-0.5-0.5-1-0.7-1.7-0.7c-2.6,0-4.9,1-6.8,2.9c-1.9,1.9-2.9,4.2-2.9,6.8c0,0.7,0.2,1.3,0.7,1.7C41.3,60.7,41.9,60.9,42.6,60.9z"/>
</g>
<g id="XMLID_54_">
</g>
<g id="XMLID_62_">
</g>
<g id="XMLID_63_">
</g>
<g id="XMLID_64_">
</g>
<g id="XMLID_65_">
</g>
<g id="XMLID_66_">
</g>
</svg>
