<?xml version="1.0" standalone="no"?>
<!DOCTYPE svg PUBLIC "-//W3C//DTD SVG 20010904//EN"
 "http://www.w3.org/TR/2001/REC-SVG-20010904/DTD/svg10.dtd">
<svg version="1.0" xmlns="http://www.w3.org/2000/svg"
 width="700.000000pt" height="700.000000pt" viewBox="0 0 700.000000 700.000000"
 preserveAspectRatio="xMidYMid meet">
<metadata>
Created by potrace 1.11, written by Peter Selinger 2001-2013
</metadata>
<g transform="translate(0.000000,700.000000) scale(0.100000,-0.100000)"
fill="#000000" stroke="none">
<path d="M5378 6057 c-20 -17 -40 -43 -44 -57 -4 -14 -7 -93 -6 -177 1 -197
17 -231 107 -240 62 -7 121 27 135 76 5 20 10 99 10 175 0 122 -3 145 -21 183
-38 79 -117 96 -181 40z"/>
<path d="M4964 5905 c-46 -19 -84 -70 -84 -112 0 -58 27 -97 146 -213 112
-108 115 -110 160 -110 40 0 51 5 85 39 42 42 50 80 29 138 -12 31 -242 263
-263 264 -6 0 -19 2 -28 4 -8 1 -29 -3 -45 -10z"/>
<path d="M5723 5776 c-132 -132 -133 -133 -133 -180 0 -87 94 -157 170 -126
23 10 105 87 216 204 21 22 44 75 44 100 0 35 -27 87 -56 109 -13 10 -43 20
-66 22 l-43 4 -132 -133z"/>
<path d="M5791 5443 c-42 -14 -81 -55 -82 -86 -1 -12 -2 -29 -3 -37 -2 -27 36
-90 63 -104 32 -17 295 -21 350 -6 50 13 81 49 87 99 6 48 -22 110 -58 129
-33 18 -309 21 -357 5z"/>
<path d="M5107 5172 c-91 -92 -213 -214 -271 -272 l-105 -104 -151 149 c-170
170 -211 197 -299 197 -91 0 -139 -27 -258 -145 -57 -56 -105 -103 -108 -105
-2 -2 -52 15 -112 37 -275 103 -517 146 -806 144 -182 -2 -350 -20 -477 -53
-19 -5 -48 -11 -64 -14 -40 -7 -214 -65 -248 -82 -16 -8 -28 -12 -28 -10 0 10
-269 -132 -350 -185 -761 -497 -1128 -1356 -964 -2257 74 -407 296 -824 599
-1127 185 -185 335 -294 560 -410 193 -98 406 -171 585 -199 19 -3 46 -8 59
-10 127 -26 605 -28 681 -2 8 3 33 7 55 10 240 30 558 154 787 306 387 258
672 605 847 1030 47 117 103 305 116 395 3 22 10 65 15 95 16 101 21 165 21
306 1 179 -5 238 -38 444 -11 68 -72 278 -107 368 -20 50 -36 95 -36 99 0 4
47 55 105 113 118 120 146 170 146 255 0 89 -33 141 -196 310 -79 83 -145 153
-145 156 0 4 109 114 241 245 271 268 299 297 299 305 0 6 -159 161 -176 171
-5 4 -85 -68 -177 -160z m-2330 -975 c50 -38 67 -80 61 -148 -6 -57 -45 -115
-92 -134 -17 -7 -67 -15 -111 -19 -176 -14 -297 -69 -426 -196 -130 -128 -191
-253 -204 -419 -9 -110 -11 -121 -33 -150 -77 -103 -230 -91 -288 22 -18 34
-21 99 -9 202 5 39 9 72 10 75 1 3 5 23 10 45 21 105 94 256 170 354 165 214
394 355 635 390 170 25 220 21 277 -22z"/>
<path d="M5685 5188 c-83 -23 -123 -118 -80 -185 31 -47 228 -241 255 -250 35
-13 75 -3 115 29 43 35 56 97 31 149 -14 30 -172 201 -218 237 -26 21 -71 29
-103 20z"/>
</g>
</svg>
